<svg width="64" height="49" viewBox="0 0 64 49" fill="none" xmlns="http://www.w3.org/2000/svg">
<path d="M53.4371 38.3309H60.0013C60.716 38.3214 61.3988 38.0353 61.9043 37.5334C62.4097 37.0315 62.6979 36.3534 62.7074 35.6437V22.2221C62.7074 5.39851 54.8892 1.81187 50.2704 1.89596C37.9843 2.11716 27.1552 1.94532 3.98247 1.94532C2.50056 1.94532 1.27637 3.29991 1.27637 4.77698V35.6437C1.28451 36.3537 1.57228 37.0323 2.07807 37.5343C2.58387 38.0362 3.98247 38.3291 3.98247 38.3291H10.5608M44.7702 38.3309H19.394M41.7511 2.07694C41.7511 3.8465 41.7511 20.3191 41.7327 21.5677M10.5608 38.3291C9.76213 39.3075 9.32064 40.5332 9.32064 41.8042C9.32064 42.8957 9.64659 43.9628 10.2573 44.8703C10.868 45.7779 11.7359 46.4853 12.7515 46.903C13.767 47.3207 14.8844 47.43 15.9625 47.2171C17.0406 47.0041 18.0309 46.4785 18.8081 45.7067C19.5854 44.9348 20.1147 43.9515 20.3291 42.8809C20.5436 41.8103 20.4335 40.7007 20.0129 39.6922C19.5922 38.6838 18.8799 37.8218 17.9659 37.2154C17.052 36.609 15.9775 36.2853 14.8783 36.2853C13.4043 36.2853 11.9907 36.8668 10.9484 37.9018C10.8112 38.038 10.6819 38.1807 10.5608 38.3291ZM49.1055 36.2853C50.2048 36.285 51.2795 36.6083 52.1936 37.2145C53.1078 37.8207 53.8205 38.6825 54.2414 39.691C54.6623 40.6994 54.7726 41.8091 54.5584 42.8798C54.3442 43.9505 53.815 44.934 53.0378 45.706C52.2606 46.478 51.2704 47.0038 50.1922 47.2169C49.1141 47.43 47.9966 47.3208 46.9809 46.9032C45.9653 46.4855 45.0972 45.7782 44.4864 44.8705C43.8757 43.9629 43.5497 42.8958 43.5497 41.8042C43.5497 40.3408 44.135 38.9374 45.1768 37.9024C46.2187 36.8675 47.6318 36.2858 49.1055 36.2853ZM1.27637 21.5859C7.29199 21.5859 57.5529 21.5713 62.5067 21.5549L1.27637 21.5859ZM21.4852 2.07694C21.4852 3.8465 21.476 20.3191 21.4668 21.5677L21.4852 2.07694Z" stroke="#BF885E" stroke-width="2" stroke-linecap="round" stroke-linejoin="round"/>
</svg>
